<?xml version="1.0" encoding="UTF-8"?>
<svg width="35px" height="32px" viewBox="0 0 35 32" version="1.1" xmlns="http://www.w3.org/2000/svg" xmlns:xlink="http://www.w3.org/1999/xlink">
    <!-- Generator: Sketch 54.1 (76490) - https://sketchapp.com -->
    <title>医疗</title>
    <desc>Created with Sketch.</desc>
    <g id="Templates-模板页面" stroke="none" stroke-width="1" fill="none" fill-rule="evenodd">
        <g id="03-入口" transform="translate(-24.000000, -16.000000)" fill="#FFFFFF" fill-rule="nonzero">
            <g id="编组-8" transform="translate(0.000000, -13.000000)">
                <g id="编组-3">
                    <g id="医疗" transform="translate(24.000000, 29.000000)">
                        <g id="编组">
                            <path d="M31.9137094,5.96082865 L25.6814295,5.96082865 L25.6814295,2.46803706 L25.6814295,2.46805117 C25.6774355,1.12296088 24.5808533,0.0335322262 23.2269137,0.0295480249 L11.1460143,0.0295480249 L11.1460143,0.0295480248 C9.79207471,0.0335237419 8.69548629,1.12294593 8.6914834,2.46803622 L8.6914834,5.96080912 L2.45916587,5.96080912 L2.4591659,5.96080912 C1.10522633,5.96478484 0.00863791305,7.05420702 0.00463502409,8.39929731 L0.00463502409,29.1264507 L0.00463498145,29.1264364 C0.00862891658,30.4715266 1.10521124,31.5609553 2.45915081,31.5649395 L31.9135289,31.5649395 L31.9135289,31.5649395 C33.2674685,31.5609637 34.3640569,30.4715416 34.3680598,29.1264513 L34.3680598,8.39929792 L34.3680599,8.39931202 C34.3640658,7.05422173 33.2674836,5.96479308 31.913544,5.96080888 L31.9137094,5.96082865 Z M11.1459766,2.47226047 L11.1459766,2.47226047 C11.1472851,2.47076962 11.1486947,2.46936931 11.1501953,2.46806932 L23.2226676,2.46806932 L23.2268864,2.47226047 L23.2268864,5.96082866 L11.1459766,5.96082866 L11.1459766,2.47226047 Z M23.8788504,8.3993019 L31.909383,8.3993019 L31.9136017,8.40349304 L31.9136017,29.1219006 L31.909383,29.1264728 L2.46343204,29.1264728 L2.45921332,29.1219006 L2.45921332,8.40353042 L2.46343204,8.39933927 L23.8800166,8.39933927 L23.8788504,8.3993019 Z" id="形状"></path>
                            <path d="M21.0216379,10.8187511 L13.3512148,10.8187511 L13.3512148,14.9527525 L9.19001607,14.9527525 L9.19001607,22.5730421 L13.3512148,22.5730421 L13.3512148,26.7070434 L21.0216379,26.7070434 L21.0216379,22.5730421 L25.1828366,22.5730421 L25.1828366,14.9527525 L21.0216379,14.9527525 L21.0216379,10.8187511 Z M22.7283057,17.3912257 L22.7283057,20.134524 L18.5670694,20.134524 L18.5670694,24.2685253 L15.8057231,24.2685253 L15.8057231,20.134524 L11.644562,20.134524 L11.644562,17.3912257 L15.8057607,17.3912257 L15.8057607,13.2572244 L18.567107,13.2572244 L18.567107,17.3912257 L22.7283057,17.3912257 Z" id="形状"></path>
                        </g>
                    </g>
                </g>
            </g>
        </g>
    </g>
</svg>